<?xml version="1.0" encoding="UTF-8"?>
<svg version="1.1" xmlns="http://www.w3.org/2000/svg" width="48" height="48">
<path d="M0 0 C3.94737163 -0.44687226 6.20872057 -0.48983965 9.625 1.625 C10.40875 2.07875 11.1925 2.5325 12 3 C14.43028072 2.33719617 16.2010972 1.7989028 18 0 C20.67058851 -0.14115161 23.32432238 -0.04247107 26 0 C28.00176882 3.00265324 27.98031866 4.20665412 27.625 7.9375 C27.45081099 10.02766201 27.45081099 10.02766201 28 12 C30.41057119 14.21014168 33.08261473 15.56289478 36 17 C37 18 37 18 37.375 20.8125 C37 24 37 24 34.75 26.3125 C32.31949908 27.80394375 30.71815704 28.41338919 28 29 C28.02320313 29.68707031 28.04640625 30.37414062 28.0703125 31.08203125 C28.08835938 31.98308594 28.10640625 32.88414063 28.125 33.8125 C28.14820313 34.70582031 28.17140625 35.59914062 28.1953125 36.51953125 C28 39 28 39 26 42 C19.11111111 42.66666667 19.11111111 42.66666667 15.5 40.5 C15.005 40.005 14.51 39.51 14 39 C13.38125 39.309375 12.7625 39.61875 12.125 39.9375 C9.16261359 41.4186932 7.32074973 42.17674817 4 42.25 C3.29875 42.27578125 2.5975 42.3015625 1.875 42.328125 C1.25625 42.21984375 0.6375 42.1115625 0 42 C-2.22666741 38.65999889 -2.09309785 38.33182891 -1.625 34.625 C-1.44959653 32.23975767 -1.44959653 32.23975767 -2 30 C-4.38707898 27.71484125 -7.03361096 26.40480158 -10 25 C-11 24 -11 24 -11.375 21.1875 C-11 18 -11 18 -8.75 15.75 C-6.53006998 14.33731726 -4.35815327 13.1488439 -2 12 C-2.02320313 11.38511719 -2.04640625 10.77023437 -2.0703125 10.13671875 C-2.09738281 8.92435547 -2.09738281 8.92435547 -2.125 7.6875 C-2.14820313 6.88699219 -2.17140625 6.08648437 -2.1953125 5.26171875 C-2 3 -2 3 0 0 Z M2 3 C0.58422523 4.18424326 0.58422523 4.18424326 0.9375 7.5625 C0.958125 8.696875 0.97875 9.83125 1 11 C4.12177395 12.04059132 5.07083439 12.32284898 8 11 C9.29660434 8.50965614 9.29660434 8.50965614 10 6 C6.93882432 3.37613513 6.26826873 3 2 3 Z M16 6 C16.54708727 8.53744315 16.54708727 8.53744315 18 11 C21.00331073 11.98705203 21.00331073 11.98705203 24 12 C25.33648017 10.88898816 25.33648017 10.88898816 25.125 8.0625 C25.21325664 5.08454272 25.21325664 5.08454272 24 3 C19.73173127 3 19.06117568 3.37613513 16 6 Z M6.375 16.6875 C4.68829625 19.84251165 4.68829625 19.84251165 5.625 22.6875 C6.69722055 24.49078001 7.83625595 26.25438393 9 28 C13.07906217 28.59570076 13.07906217 28.59570076 17 28 C19.80263312 25.46316502 19.80263312 25.46316502 21 22 C20.2386133 18.72603721 18.87290357 16.80935535 17 14 C10.96350793 13.06808068 10.96350793 13.06808068 6.375 16.6875 Z M3 15 C4 17 4 17 4 17 Z M22 15 C23 17 23 17 23 17 Z M26 16 C25.06213918 21.05009595 25.06213918 21.05009595 26 26 C30.39314793 24.98839152 30.39314793 24.98839152 33.375 21.875 C33.58125 21.25625 33.7875 20.6375 34 20 C31.60490662 17.10067643 29.68754757 16.49831724 26 16 Z M-7 19 C-7.87822312 21.08533633 -7.87822312 21.08533633 -8 23 C-4.31435916 25.45579697 -4.31435916 25.45579697 0 26 C0.93786082 20.94990405 0.93786082 20.94990405 0 16 C-2.99642879 16 -4.60205165 17.27839605 -7 19 Z M3 25 C4 27 4 27 4 27 Z M22 25 C23 27 23 27 23 27 Z M2 30 C0.58422523 31.18424326 0.58422523 31.18424326 0.9375 34.5625 C0.958125 35.696875 0.97875 36.83125 1 38 C3.24875747 38.86850174 3.24875747 38.86850174 6 39 C8.81099414 37.1687189 8.81099414 37.1687189 11 35 C9.89290509 32.93704708 9.89290509 32.93704708 8 31 C4.94727535 30.10169161 4.94727535 30.10169161 2 30 Z M18 31 C16.70339566 33.49034386 16.70339566 33.49034386 16 36 C17.69495956 37.66846734 17.69495956 37.66846734 20 39 C22.6984589 38.77802187 22.6984589 38.77802187 25 38 C25 35.36 25 32.72 25 30 C21.38166481 29.97690505 21.38166481 29.97690505 18 31 Z " fill="#52C1DE" transform="translate(11,3)"/>
<path d="M0 0 C1.32278481 5.41139241 1.32278481 5.41139241 -0.0625 7.9375 C-2.91093248 9.49954362 -4.93504903 8.74921024 -8 8 C-9.32278481 2.58860759 -9.32278481 2.58860759 -7.9375 0.0625 C-5.08906752 -1.49954362 -3.06495097 -0.74921024 0 0 Z " fill="#4EC3DF" transform="translate(28,20)"/>
</svg>
