<?xml version="1.0" encoding="UTF-8"?>
<svg version="1.1" xmlns="http://www.w3.org/2000/svg" width="50" height="50">
<path d="M0 0 C3.3 0 6.6 0 10 0 C10.33 1.32 10.66 2.64 11 4 C11.7425 4.12375 12.485 4.2475 13.25 4.375 C15.82770362 4.96084173 17.67191336 5.7984069 20 7 C20.680625 7.103125 21.36125 7.20625 22.0625 7.3125 C24 8 24 8 25.8125 10.25 C27.25215658 13.58394156 26.84977732 14.52363824 26 18 C25.79231553 22.33272778 25.60393683 26.54776837 26.75 30.75 C27 33 27 33 25.4375 36.25 C22.54621299 39.51196483 21.22716759 39.64024106 17 40 C16.01 40.66 15.02 41.32 14 42 C13.01 42 12.02 42 11 42 C10.67 43.32 10.34 44.64 10 46 C6.7 46 3.4 46 0 46 C-0.33 44.68 -0.66 43.36 -1 42 C-2.11375 41.814375 -2.11375 41.814375 -3.25 41.625 C-5.82770362 41.03915827 -7.67191336 40.2015931 -10 39 C-10.680625 38.896875 -11.36125 38.79375 -12.0625 38.6875 C-14 38 -14 38 -15.8125 35.75 C-17.25215658 32.41605844 -16.84977732 31.47636176 -16 28 C-15.79231553 23.66727222 -15.60393683 19.45223163 -16.75 15.25 C-17 13 -17 13 -15.4375 9.75 C-12.54621299 6.48803517 -11.22716759 6.35975894 -7 6 C-6.01 5.34 -5.02 4.68 -4 4 C-3.01 4 -2.02 4 -1 4 C-0.67 2.68 -0.34 1.36 0 0 Z M2 2 C2 3.32 2 4.64 2 6 C1.071875 6.28875 0.14375 6.5775 -0.8125 6.875 C-4.09791667 7.8875 -4.09791667 7.8875 -7 10 C-8.2684375 10.185625 -8.2684375 10.185625 -9.5625 10.375 C-12.16952088 10.74737559 -12.16952088 10.74737559 -13.3125 13.0625 C-13.539375 13.701875 -13.76625 14.34125 -14 15 C-13.67 15.33 -13.34 15.66 -13 16 C-12.92677138 18.29059113 -12.91641106 20.58333567 -12.9375 22.875 C-12.94652344 24.13054688 -12.95554687 25.38609375 -12.96484375 26.6796875 C-12.97644531 27.77539062 -12.98804688 28.87109375 -13 30 C-13.2236068 32.9254644 -13.2236068 32.9254644 -12 35 C-10.00945124 35.69437747 -8.00744615 36.35610218 -6 37 C-4 38 -2 39 0 40 C0.66 40 1.32 40 2 40 C2 41.32 2 42.64 2 44 C3.98 44 5.96 44 8 44 C8 42.68 8 41.36 8 40 C8.928125 39.71125 9.85625 39.4225 10.8125 39.125 C14.09791667 38.1125 14.09791667 38.1125 17 36 C17.845625 35.87625 18.69125 35.7525 19.5625 35.625 C22.16952088 35.25262441 22.16952088 35.25262441 23.3125 32.9375 C23.539375 32.298125 23.76625 31.65875 24 31 C23.67 30.67 23.34 30.34 23 30 C22.92677138 27.70940887 22.91641106 25.41666433 22.9375 23.125 C22.94652344 21.86945312 22.95554688 20.61390625 22.96484375 19.3203125 C22.97644531 18.22460938 22.98804688 17.12890625 23 16 C23.2236068 13.0745356 23.2236068 13.0745356 22 11 C20.00945124 10.30562253 18.00744615 9.64389782 16 9 C14 8 12 7 10 6 C9.34 6 8.68 6 8 6 C8 4.68 8 3.36 8 2 C6.02 2 4.04 2 2 2 Z " fill="#000000" transform="translate(20,2)"/>
<path d="M0 0 C0.99 0 1.98 0 3 0 C6.44419134 9.41002278 6.44419134 9.41002278 6 14 C5.01 13.67 4.02 13.34 3 13 C3 12.34 3 11.68 3 11 C2.01 11 1.02 11 0 11 C-0.33 11.99 -0.66 12.98 -1 14 C-1.66 14 -2.32 14 -3 14 C-2.58846263 9.02906176 -2.20399168 4.55491614 0 0 Z M1 6 C2 9 2 9 2 9 Z " fill="#000000" transform="translate(15,18)"/>
<path d="M0 0 C2.64 0 5.28 0 8 0 C8 2.97 8 5.94 8 9 C6.02 9 4.04 9 2 9 C2 10.65 2 12.3 2 14 C1.34 14 0.68 14 0 14 C0 9.38 0 4.76 0 0 Z M2 2 C2 3.65 2 5.3 2 7 C3.32 6.67 4.64 6.34 6 6 C5.67 4.68 5.34 3.36 5 2 C4.01 2 3.02 2 2 2 Z " fill="#000000" transform="translate(23,18)"/>
<path d="M0 0 C1.65 0 3.3 0 5 0 C5 4.62 5 9.24 5 14 C3.35 14 1.7 14 0 14 C0 13.34 0 12.68 0 12 C0.66 12 1.32 12 2 12 C2 8.7 2 5.4 2 2 C1.34 2 0.68 2 0 2 C0 1.34 0 0.68 0 0 Z " fill="#000000" transform="translate(32,18)"/>
</svg>
